<svg width="174" height="37" viewBox="0 0 174 37" fill="none" xmlns="http://www.w3.org/2000/svg">
<g clip-path="url(#clip0_3934_195)">
<path d="M29.9278 28.2448C29.9278 28.9542 29.7896 29.6201 29.5114 30.2463C29.2332 30.8706 28.8579 31.4193 28.3855 31.8865C27.9112 32.3557 27.366 32.7265 26.7498 32.997C26.1318 33.2675 25.4745 33.4038 24.7743 33.4038H12.6133V37.0001H24.7743C25.9674 37.0001 27.0896 36.7655 28.139 36.2963C29.1884 35.8272 30.1089 35.1972 30.9006 34.4045C31.6923 33.6119 32.314 32.6849 32.7678 31.6217C33.2196 30.5585 33.4474 29.4215 33.4474 28.2145V27.3311H29.9296V28.2448H29.9278Z" fill="#0CAE4B"/>
<path d="M29.9277 4.79785V14.4858H12.6113V18.05H29.9277V25.6077H33.4455V4.79785H29.9277Z" fill="#184A92"/>
<path d="M3.54953 37.0002V27.3142H20.8323V23.75H3.54953V13.5248C3.54953 12.8361 3.68771 12.1797 3.96592 11.5535C4.24413 10.9273 4.61944 10.3806 5.09184 9.91141C5.56424 9.44224 6.11132 9.07145 6.7275 8.80092C7.34554 8.53039 8.00279 8.39418 8.70299 8.39418H20.8323V4.79785H8.70299C7.48931 4.79785 6.35779 5.02676 5.30843 5.48647C4.25907 5.94429 3.33854 6.57615 2.54685 7.37828C1.75516 8.18041 1.13152 9.11307 0.679658 10.1782C0.227798 11.2414 0 12.3764 0 13.5853V36.9983H3.54953V37.0002Z" fill="#184A92"/>
<path d="M25.1828 0L27.4776 2.32503H35.8576V10.8155L38.1524 13.1405V0H25.1828Z" fill="#F15A29"/>
<path d="M48.3252 26.6577C46.7064 26.1204 45.3041 25.3675 44.124 24.397L46.7213 20.7117C48.6165 22.2195 50.8254 22.9725 53.3536 22.9725C54.6158 22.9725 55.6203 22.7549 56.3635 22.3217C57.1066 21.8885 57.4782 21.3001 57.4782 20.5566C57.4782 19.8548 57.1309 19.308 56.44 18.9164C55.7473 18.5248 54.6475 18.2467 53.1388 18.0802C50.226 17.7511 48.0918 17.0587 46.7362 16.0068C45.3806 14.9531 44.7047 13.4472 44.7047 11.4854C44.7047 10.1649 45.0707 8.99767 45.8045 7.98744C46.5383 6.97722 47.5671 6.19211 48.891 5.63403C50.2148 5.07595 51.7422 4.79785 53.4749 4.79785C54.9612 4.79785 56.4139 5.01541 57.8292 5.44863C59.2446 5.88186 60.4918 6.49102 61.5729 7.27612L59.2203 10.8365C57.5491 9.6598 55.7062 9.07145 53.6897 9.07145C52.4461 9.07145 51.4528 9.27766 50.7096 9.69007C49.9665 10.1025 49.5949 10.6606 49.5949 11.3624C49.5949 12.0643 49.9161 12.5694 50.5584 12.9421C51.2007 13.3129 52.2743 13.5929 53.783 13.7783C56.6753 14.1093 58.8356 14.8358 60.2622 15.9614C61.6887 17.087 62.402 18.6289 62.402 20.5907C62.402 21.9528 62.0248 23.156 61.2705 24.1984C60.5161 25.2407 59.4574 26.0466 58.0925 26.6142C56.7276 27.1817 55.1591 27.4655 53.3872 27.4655C51.6152 27.4655 49.9497 27.1969 48.3289 26.6596L48.3252 26.6577Z" fill="#184A92"/>
<path d="M82.8418 11.6729H87.9149L82.8735 26.9681H78.3194L77.0665 23.2223L75.3245 18.2999L73.5824 23.2223L72.3295 26.9681H67.7455L62.7041 11.6729H67.7773L69.1216 16.3797L70.283 21.0865L73.7355 11.6747H76.9134L80.3659 21.1187L81.5273 16.3816L82.8418 11.6747V11.6729Z" fill="#184A92"/>
<path d="M105.028 11.6726V26.9678H100.872L100.566 25.1403C99.2828 26.5649 97.6116 27.2762 95.554 27.2762C94.148 27.2762 92.9007 26.9414 91.8103 26.2698C90.7198 25.5982 89.8703 24.6598 89.2578 23.4529C88.6473 22.2459 88.341 20.8668 88.341 19.3193C88.341 17.7718 88.6473 16.3926 89.2578 15.1856C89.8684 13.9787 90.7198 13.0384 91.8103 12.3687C92.9007 11.6972 94.148 11.3623 95.554 11.3623C96.5716 11.3623 97.509 11.5439 98.366 11.9053C99.2212 12.2666 99.955 12.7868 100.566 13.4679L100.872 11.6726H105.028ZM99.2828 22.1229C99.955 21.4116 100.291 20.477 100.291 19.3211C100.291 18.1652 99.955 17.2307 99.2828 16.5194C98.6106 15.8081 97.7442 15.4505 96.6855 15.4505C95.6268 15.4505 94.7642 15.8118 94.1032 16.5345C93.4403 17.2572 93.1098 18.1861 93.1098 19.3211C93.1098 20.4562 93.4403 21.3851 94.1032 22.1078C94.7642 22.8305 95.625 23.1918 96.6855 23.1918C97.7461 23.1918 98.6106 22.8361 99.2828 22.1229Z" fill="#184A92"/>
<path d="M117.008 19.815H114.105V26.9679H109.093V5.29346H119.514C121.062 5.29346 122.417 5.59804 123.579 6.2072C124.74 6.81636 125.636 7.67714 126.267 8.7933C126.899 9.90758 127.214 11.1883 127.214 12.6318C127.214 14.2833 126.792 15.6965 125.946 16.8732C125.1 18.0499 123.904 18.8861 122.356 19.3818L128.407 26.9679H122.449L117.01 19.815H117.008ZM121.392 10.4335C120.812 9.89623 119.992 9.62759 118.933 9.62759H114.075V15.7268H118.933C120.012 15.7268 120.838 15.4638 121.409 14.9379C121.979 14.412 122.264 13.6628 122.264 12.6923C122.264 11.7218 121.975 10.9689 121.394 10.4316L121.392 10.4335Z" fill="#184A92"/>
<path d="M145.827 11.6726V26.9678H141.67L141.364 25.1403C140.081 26.5649 138.41 27.2762 136.353 27.2762C134.947 27.2762 133.699 26.9414 132.609 26.2698C131.518 25.5982 130.669 24.6598 130.056 23.4529C129.446 22.2459 129.14 20.8668 129.14 19.3193C129.14 17.7718 129.446 16.3926 130.056 15.1856C130.667 13.9787 131.518 13.0384 132.609 12.3687C133.699 11.6972 134.947 11.3623 136.353 11.3623C137.372 11.3623 138.308 11.5439 139.165 11.9053C140.02 12.2666 140.754 12.7868 141.364 13.4679L141.67 11.6726H145.827ZM140.081 22.1229C140.754 21.4116 141.09 20.477 141.09 19.3211C141.09 18.1652 140.754 17.2307 140.081 16.5194C139.409 15.8081 138.543 15.4505 137.484 15.4505C136.425 15.4505 135.565 15.8118 134.902 16.5345C134.239 17.2572 133.908 18.1861 133.908 19.3211C133.908 20.4562 134.239 21.3851 134.902 22.1078C135.565 22.8305 136.425 23.1918 137.484 23.1918C138.543 23.1918 139.409 22.8361 140.081 22.1229Z" fill="#184A92"/>
<path d="M172.35 13.0347C173.45 14.1697 174 15.7286 174 17.7093V26.9659H169.202V18.3279C169.202 17.4199 168.993 16.7123 168.576 16.2072C168.158 15.7021 167.572 15.4486 166.819 15.4486C165.983 15.4486 165.322 15.7381 164.832 16.3151C164.343 16.8939 164.099 17.6563 164.099 18.606V26.9659H159.332V18.3279C159.332 17.4199 159.128 16.7123 158.721 16.2072C158.314 15.7021 157.732 15.4486 156.979 15.4486C156.143 15.4486 155.476 15.7381 154.977 16.3151C154.479 16.8939 154.229 17.6563 154.229 18.606V26.9659H149.432V11.6726H153.588L153.863 13.3752C154.393 12.7149 155.028 12.2098 155.773 11.858C156.516 11.508 157.317 11.332 158.172 11.332C159.151 11.332 160.026 11.5439 160.801 11.9677C161.576 12.3914 162.187 12.9741 162.635 13.7176C163.858 12.1285 165.589 11.3339 167.829 11.3339C169.745 11.3339 171.252 11.9015 172.352 13.0366L172.35 13.0347Z" fill="#184A92"/>
<path d="M47.0798 36.8792C46.7008 36.8792 46.3516 36.8168 46.0342 36.6901C45.7167 36.5652 45.4404 36.3874 45.2051 36.1566C44.9717 35.9258 44.7887 35.6571 44.658 35.3488C44.5273 35.0404 44.462 34.7018 44.462 34.331C44.462 33.9602 44.5273 33.6216 44.658 33.3132C44.7887 33.0048 44.9736 32.7362 45.2089 32.5054C45.446 32.2746 45.7223 32.0968 46.0416 31.9719C46.3591 31.847 46.712 31.7827 47.0947 31.7827C47.4775 31.7827 47.8397 31.847 48.1628 31.9757C48.4858 32.1043 48.7603 32.2954 48.9843 32.5527L48.5493 32.9935C48.3476 32.7948 48.1292 32.6492 47.892 32.5565C47.6549 32.4638 47.3991 32.4184 47.1227 32.4184C46.8464 32.4184 46.5813 32.4657 46.3404 32.5602C46.0995 32.6548 45.8904 32.7873 45.7149 32.9594C45.5394 33.1297 45.4031 33.3321 45.3078 33.5667C45.2126 33.8013 45.1641 34.0567 45.1641 34.331C45.1641 34.6053 45.2126 34.8531 45.3078 35.0877C45.4031 35.3223 45.5394 35.5266 45.7149 35.6988C45.8904 35.8728 46.0977 36.0052 46.3367 36.1017C46.5757 36.1963 46.8352 36.2436 47.1153 36.2436C47.3767 36.2436 47.6288 36.202 47.8696 36.1187C48.1105 36.0355 48.3345 35.8974 48.5399 35.7025L48.9395 36.2436C48.6968 36.4517 48.4111 36.6106 48.0862 36.7166C47.7613 36.8244 47.4252 36.8774 47.0779 36.8774L47.0798 36.8792ZM48.2673 36.1547V34.3045H48.9414V36.2474L48.2673 36.1547Z" fill="#6D6E71"/>
<path d="M50.1846 36.8225V31.5425H50.8587V36.8225H50.1846Z" fill="#6D6E71"/>
<path d="M53.7363 36.8659C53.3666 36.8659 53.0361 36.7826 52.743 36.6162C52.4498 36.4497 52.2202 36.2208 52.0521 35.9294C51.8841 35.6381 51.8001 35.307 51.8001 34.9362C51.8001 34.5654 51.8841 34.2306 52.0521 33.943C52.2202 33.6555 52.4498 33.4304 52.7411 33.2639C53.0305 33.0974 53.3629 33.0142 53.7382 33.0142C54.1135 33.0142 54.4384 33.0955 54.7316 33.2601C55.0247 33.4228 55.2544 33.6498 55.4205 33.9393C55.5867 34.2287 55.6689 34.5598 55.6689 34.9343C55.6689 35.3089 55.5849 35.6419 55.4205 35.9313C55.2544 36.2208 55.0247 36.4478 54.7316 36.6143C54.4384 36.7808 54.1079 36.864 53.7382 36.864L53.7363 36.8659ZM53.7363 36.2681C53.9753 36.2681 54.1901 36.2132 54.3787 36.1054C54.5691 35.9957 54.7166 35.8405 54.8249 35.64C54.9332 35.4376 54.9855 35.2049 54.9855 34.94C54.9855 34.6752 54.9313 34.4368 54.8249 34.2401C54.7166 34.0433 54.5691 33.8901 54.3787 33.7803C54.1882 33.6706 53.9753 33.6176 53.7363 33.6176C53.4973 33.6176 53.2845 33.6725 53.0978 33.7803C52.911 33.8901 52.7617 34.0433 52.6478 34.2401C52.5357 34.4368 52.4797 34.6714 52.4797 34.94C52.4797 35.2087 52.5357 35.4395 52.6478 35.64C52.7598 35.8424 52.9092 35.9975 53.0978 36.1054C53.2845 36.2151 53.4973 36.2681 53.7363 36.2681Z" fill="#6D6E71"/>
<path d="M56.6025 36.8225V31.5425H57.2765V34.0548L57.2056 34.9307L57.2485 35.8066V36.8244H56.6025V36.8225ZM58.5742 36.866C58.2568 36.866 57.9693 36.7941 57.7135 36.6485C57.4576 36.5047 57.2579 36.289 57.1103 36.0053C56.9628 35.7196 56.8882 35.3658 56.8882 34.9383C56.8882 34.5107 56.9647 34.1551 57.116 33.8713C57.2672 33.5856 57.4726 33.3738 57.7265 33.2319C57.9823 33.09 58.2643 33.0181 58.5724 33.0181C58.9383 33.0181 59.2614 33.0994 59.5414 33.2602C59.8215 33.421 60.0437 33.6462 60.208 33.9318C60.3723 34.2194 60.4545 34.5542 60.4545 34.9383C60.4545 35.3223 60.3723 35.6591 60.208 35.9485C60.0437 36.238 59.8215 36.4631 59.5414 36.6239C59.2614 36.7847 58.9383 36.866 58.5724 36.866H58.5742ZM58.5182 36.2682C58.7572 36.2682 58.9719 36.2134 59.1605 36.1055C59.3491 35.9958 59.5004 35.8407 59.6105 35.6401C59.7207 35.4377 59.7748 35.205 59.7748 34.9402C59.7748 34.6753 59.7188 34.4369 59.6105 34.2402C59.5004 34.0435 59.351 33.8902 59.1605 33.7805C58.9701 33.6708 58.7572 33.6178 58.5182 33.6178C58.2792 33.6178 58.072 33.6727 57.8834 33.7805C57.6948 33.8902 57.5435 34.0435 57.4334 34.2402C57.3232 34.4369 57.2691 34.6715 57.2691 34.9402C57.2691 35.2088 57.3232 35.4396 57.4334 35.6401C57.5435 35.8426 57.6929 35.9977 57.8834 36.1055C58.0738 36.2153 58.2848 36.2682 58.5182 36.2682Z" fill="#6D6E71"/>
<path d="M62.4446 36.8659C62.1682 36.8659 61.9255 36.8186 61.7182 36.7241C61.5091 36.6295 61.3504 36.497 61.2365 36.3287C61.1245 36.1603 61.0684 35.9692 61.0684 35.7555C61.0684 35.5417 61.117 35.3657 61.2122 35.2012C61.3074 35.0347 61.4643 34.9022 61.6827 34.802C61.8993 34.7017 62.1944 34.6525 62.5641 34.6525H63.7441V35.1425H62.5921C62.256 35.1425 62.0282 35.1993 61.9105 35.3128C61.7929 35.4263 61.735 35.5644 61.735 35.7252C61.735 35.9106 61.8078 36.0581 61.9535 36.1698C62.0991 36.2814 62.2989 36.3362 62.5566 36.3362C62.8143 36.3362 63.0309 36.2795 63.2194 36.166C63.4099 36.0525 63.5462 35.886 63.6302 35.6684L63.7628 36.1376C63.6732 36.3608 63.5163 36.5368 63.2923 36.6673C63.0682 36.7978 62.7844 36.8641 62.4427 36.8641L62.4446 36.8659ZM63.6657 36.8224V36.026L63.6302 35.8765V34.5182C63.6302 34.2288 63.5462 34.0055 63.3819 33.8466C63.2157 33.6877 62.9655 33.6082 62.6331 33.6082C62.4128 33.6082 62.1981 33.6442 61.9871 33.718C61.7761 33.7918 61.5987 33.8901 61.4531 34.0131L61.173 33.5004C61.3653 33.3434 61.595 33.2242 61.8639 33.141C62.1327 33.0577 62.4147 33.0161 62.7097 33.0161C63.2194 33.0161 63.6134 33.141 63.8898 33.3926C64.1661 33.6442 64.3043 34.0282 64.3043 34.5447V36.8224H63.6657Z" fill="#6D6E71"/>
<path d="M65.5557 36.8225V31.5425H66.2297V36.8225H65.5557Z" fill="#6D6E71"/>
<path d="M70.4772 36.8225V32.4619H68.7911V31.8433H72.856V32.4619H71.1699V36.8225H70.4753H70.4772Z" fill="#6D6E71"/>
<path d="M73.4337 36.8224V33.0521H74.0797V34.0755L74.0162 33.8201C74.1189 33.5591 74.2926 33.3604 74.5353 33.2223C74.778 33.0842 75.0787 33.0161 75.4334 33.0161V33.6782C75.4054 33.6745 75.3774 33.6707 75.3531 33.6707H75.2803C74.92 33.6707 74.6343 33.7804 74.4233 33.998C74.2123 34.2155 74.1077 34.5315 74.1077 34.9439V36.8224H73.4337Z" fill="#6D6E71"/>
<path d="M77.0781 36.8659C76.8018 36.8659 76.559 36.8186 76.3518 36.7241C76.1427 36.6295 75.9839 36.497 75.87 36.3287C75.758 36.1603 75.702 35.9692 75.702 35.7555C75.702 35.5417 75.7505 35.3657 75.8458 35.2012C75.941 35.0347 76.0978 34.9022 76.3163 34.802C76.5329 34.7017 76.8279 34.6525 77.1976 34.6525H78.3777V35.1425H77.2256C76.8895 35.1425 76.6617 35.1993 76.5441 35.3128C76.4265 35.4263 76.3686 35.5644 76.3686 35.7252C76.3686 35.9106 76.4414 36.0581 76.587 36.1698C76.7327 36.2814 76.9325 36.3362 77.1901 36.3362C77.4478 36.3362 77.6644 36.2795 77.853 36.166C78.0435 36.0525 78.1798 35.886 78.2638 35.6684L78.3964 36.1376C78.3067 36.3608 78.1499 36.5368 77.9258 36.6673C77.7018 36.7978 77.4179 36.8641 77.0763 36.8641L77.0781 36.8659ZM78.2993 36.8224V36.026L78.2638 35.8765V34.5182C78.2638 34.2288 78.1798 34.0055 78.0155 33.8466C77.8493 33.6877 77.5991 33.6082 77.2667 33.6082C77.0464 33.6082 76.8317 33.6442 76.6207 33.718C76.4097 33.7918 76.2323 33.8901 76.0866 34.0131L75.8066 33.5004C75.9989 33.3434 76.2285 33.2242 76.4974 33.141C76.7663 33.0577 77.0482 33.0161 77.3433 33.0161C77.853 33.0161 78.247 33.141 78.5233 33.3926C78.7997 33.6442 78.9378 34.0282 78.9378 34.5447V36.8224H78.2993Z" fill="#6D6E71"/>
<path d="M81.726 36.866C81.3656 36.866 81.0444 36.7846 80.7606 36.6238C80.4768 36.463 80.2546 36.2379 80.0903 35.9484C79.926 35.659 79.8438 35.3223 79.8438 34.9382C79.8438 34.5542 79.926 34.2193 80.0903 33.9318C80.2546 33.6442 80.4768 33.421 80.7606 33.2602C81.0444 33.0994 81.3656 33.018 81.726 33.018C82.0396 33.018 82.3235 33.0899 82.5755 33.2318C82.8276 33.3737 83.0311 33.5875 83.1824 33.8712C83.3336 34.155 83.4102 34.5107 83.4102 34.9382C83.4102 35.3658 83.3373 35.7214 83.1898 36.0052C83.0423 36.289 82.8425 36.5046 82.5905 36.6484C82.3384 36.7941 82.049 36.866 81.726 36.866ZM81.7838 36.2682C82.0172 36.2682 82.2301 36.2133 82.4187 36.1055C82.6091 35.9957 82.7585 35.8406 82.8687 35.6401C82.9788 35.4377 83.033 35.205 83.033 34.9401C83.033 34.6753 82.977 34.4369 82.8687 34.2401C82.7585 34.0434 82.6091 33.8902 82.4187 33.7804C82.2301 33.6707 82.0172 33.6177 81.7838 33.6177C81.5504 33.6177 81.332 33.6726 81.1453 33.7804C80.9585 33.8902 80.8092 34.0434 80.6953 34.2401C80.5832 34.4369 80.5272 34.6715 80.5272 34.9401C80.5272 35.2087 80.5832 35.4395 80.6953 35.6401C80.8073 35.8425 80.9567 35.9976 81.1453 36.1055C81.332 36.2152 81.5448 36.2682 81.7838 36.2682ZM83.0535 36.8225V35.8047L83.0965 34.9288L83.0255 34.0528V31.5405H83.6996V36.8206H83.0535V36.8225Z" fill="#6D6E71"/>
<path d="M86.6344 36.8659C86.2367 36.8659 85.8875 36.7827 85.585 36.6162C85.2826 36.4497 85.0492 36.2227 84.883 35.9333C84.7168 35.6438 84.6328 35.3128 84.6328 34.9363C84.6328 34.5598 84.7131 34.2307 84.8755 33.9412C85.038 33.6518 85.2602 33.4247 85.5421 33.262C85.8259 33.0975 86.1452 33.0161 86.5 33.0161C86.8547 33.0161 87.1796 33.0975 87.4541 33.2583C87.7305 33.4191 87.947 33.6461 88.1039 33.9374C88.2607 34.2288 88.3392 34.5693 88.3392 34.959C88.3392 34.9874 88.3392 35.0214 88.3354 35.0593C88.3336 35.0971 88.3298 35.133 88.3242 35.1671H85.1575V34.6771H87.9732L87.6987 34.8474C87.7024 34.6052 87.6539 34.3896 87.5512 34.2004C87.4485 34.0112 87.3066 33.8617 87.1255 33.7558C86.9444 33.648 86.7352 33.595 86.4962 33.595C86.2572 33.595 86.0537 33.648 85.8707 33.7558C85.6877 33.8617 85.5458 34.0112 85.4431 34.2042C85.3404 34.3971 85.2882 34.6147 85.2882 34.8625V34.976C85.2882 35.2276 85.346 35.4509 85.4599 35.6476C85.5738 35.8444 85.7344 35.9976 85.9417 36.1073C86.1471 36.2171 86.3842 36.27 86.6512 36.27C86.8715 36.27 87.0713 36.2322 87.2506 36.1565C87.4298 36.0808 87.5885 35.9673 87.7249 35.8141L88.0964 36.2549C87.9284 36.4535 87.7193 36.6049 87.4672 36.7108C87.217 36.8149 86.9369 36.8678 86.6288 36.8678L86.6344 36.8659Z" fill="#6D6E71"/>
<path d="M92.5606 36.8794C92.2282 36.8794 91.9332 36.8245 91.6755 36.7167C91.4178 36.607 91.2143 36.4556 91.0649 36.2607C90.9156 36.0659 90.8409 35.8408 90.8409 35.5854C90.8409 35.3621 90.8894 35.1578 90.9884 34.9743C91.0873 34.7889 91.2442 34.6111 91.4589 34.437C91.6736 34.2649 91.9575 34.0852 92.3085 33.8998C92.5942 33.7484 92.8182 33.616 92.9788 33.5006C93.1413 33.3871 93.2552 33.2793 93.3224 33.1771C93.3896 33.0749 93.4232 32.9652 93.4232 32.846C93.4232 32.6852 93.3672 32.5528 93.2552 32.4506C93.1431 32.3485 92.9807 32.2974 92.7716 32.2974C92.5624 32.2974 92.3794 32.3542 92.2562 32.4639C92.1311 32.5755 92.0695 32.7212 92.0695 32.9009C92.0695 32.9917 92.0844 33.0768 92.1143 33.1601C92.1442 33.2433 92.2002 33.336 92.2824 33.4382C92.3645 33.5403 92.4821 33.669 92.6371 33.826L95.2344 36.4443L94.8553 36.9002L92.0956 34.1192C91.9313 33.9527 91.8025 33.8052 91.7091 33.6746C91.6158 33.5441 91.5467 33.4174 91.5056 33.2944C91.4645 33.1714 91.4421 33.0447 91.4421 32.9179C91.4421 32.6947 91.4963 32.4998 91.6064 32.3315C91.7166 32.1631 91.8716 32.0326 92.0695 31.9399C92.2693 31.8472 92.5008 31.8018 92.7678 31.8018C93.0162 31.8018 93.2309 31.8434 93.4139 31.9266C93.5969 32.0099 93.7388 32.129 93.8396 32.2823C93.9404 32.4355 93.9908 32.6228 93.9908 32.8404C93.9908 33.0295 93.946 33.2055 93.8545 33.3663C93.763 33.5271 93.6174 33.6841 93.4157 33.8355C93.2141 33.9868 92.9433 34.1514 92.6016 34.3254C92.3216 34.473 92.1012 34.6092 91.9425 34.7341C91.7838 34.8589 91.6699 34.9838 91.6027 35.1067C91.5355 35.2297 91.5 35.3659 91.5 35.5116C91.5 35.6686 91.5448 35.8067 91.6363 35.9278C91.7278 36.0489 91.8566 36.1435 92.0228 36.2097C92.189 36.2759 92.3813 36.3099 92.6016 36.3099C92.9153 36.3099 93.1991 36.2418 93.4512 36.1037C93.7033 35.9656 93.9161 35.7594 94.0861 35.4851C94.256 35.2108 94.3829 34.8684 94.4614 34.4597L95.0029 34.6376C94.9095 35.1162 94.7489 35.5229 94.5211 35.854C94.2933 36.1851 94.0151 36.4405 93.6827 36.6145C93.3504 36.7905 92.9751 36.8775 92.5587 36.8775L92.5606 36.8794Z" fill="#6D6E71"/>
<path d="M99.4008 36.8792C99.0255 36.8792 98.6689 36.8205 98.3272 36.7051C97.9855 36.5897 97.7166 36.4384 97.5206 36.253L97.7801 35.6987C97.9668 35.8652 98.2058 36.0033 98.4971 36.1111C98.7865 36.2208 99.089 36.2757 99.4027 36.2757C99.6884 36.2757 99.9199 36.2435 100.097 36.1754C100.275 36.1092 100.405 36.0184 100.491 35.9011C100.577 35.7838 100.618 35.6533 100.618 35.5057C100.618 35.3355 100.562 35.1974 100.454 35.0933C100.344 34.9893 100.202 34.9041 100.026 34.8398C99.8508 34.7755 99.6585 34.7206 99.4475 34.6733C99.2365 34.626 99.0255 34.5693 98.8127 34.505C98.5998 34.4406 98.4056 34.3593 98.2301 34.259C98.0546 34.1588 97.9127 34.0263 97.8044 33.8561C97.6961 33.6877 97.6438 33.4701 97.6438 33.2053C97.6438 32.9404 97.711 32.7134 97.8436 32.4978C97.9762 32.2821 98.1834 32.108 98.4616 31.9775C98.7398 31.847 99.0946 31.7808 99.5259 31.7808C99.8116 31.7808 100.095 31.8186 100.376 31.8943C100.656 31.9699 100.9 32.0797 101.106 32.2216L100.874 32.791C100.663 32.6491 100.441 32.5451 100.207 32.4807C99.9741 32.4164 99.7463 32.3842 99.5259 32.3842C99.2496 32.3842 99.0218 32.4202 98.8444 32.4902C98.667 32.5602 98.5363 32.6567 98.4542 32.7759C98.372 32.895 98.3309 33.0275 98.3309 33.175C98.3309 33.351 98.3869 33.491 98.4952 33.595C98.6054 33.6991 98.7473 33.7823 98.9228 33.8447C99.0983 33.9072 99.2907 33.962 99.5017 34.0112C99.7127 34.0604 99.9236 34.1171 100.136 34.1796C100.349 34.242 100.544 34.3215 100.719 34.4217C100.895 34.522 101.036 34.6544 101.145 34.8209C101.253 34.9874 101.307 35.1993 101.307 35.4603C101.307 35.7214 101.24 35.9446 101.104 36.1603C100.967 36.376 100.758 36.55 100.474 36.6805C100.191 36.8111 99.834 36.8754 99.4046 36.8754L99.4008 36.8792Z" fill="#6D6E71"/>
<path d="M103.796 36.8661C103.477 36.8661 103.198 36.8075 102.957 36.6883C102.717 36.5691 102.53 36.3875 102.395 36.1435C102.261 35.8994 102.196 35.5929 102.196 35.2221V33.0522H102.87V35.1446C102.87 35.5154 102.957 35.7916 103.133 35.977C103.308 36.1624 103.555 36.2551 103.874 36.2551C104.108 36.2551 104.311 36.2059 104.485 36.1094C104.658 36.0129 104.791 35.871 104.884 35.6819C104.978 35.4946 105.024 35.2676 105.024 35.0027V33.0541H105.698V36.8245H105.06V35.8067L105.164 36.0772C105.043 36.3289 104.86 36.5237 104.617 36.6599C104.375 36.798 104.1 36.8661 103.796 36.8661Z" fill="#6D6E71"/>
<path d="M108.051 36.8659C107.741 36.8659 107.448 36.8224 107.17 36.7372C106.892 36.6521 106.673 36.5481 106.513 36.4232L106.793 35.8821C106.951 35.9919 107.149 36.0846 107.383 36.1602C107.616 36.2359 107.855 36.2737 108.1 36.2737C108.413 36.2737 108.639 36.2283 108.777 36.1375C108.916 36.0467 108.985 35.9219 108.985 35.7611C108.985 35.6419 108.942 35.5511 108.858 35.483C108.774 35.4168 108.662 35.3676 108.524 35.3335C108.385 35.2995 108.232 35.2711 108.064 35.2446C107.896 35.2181 107.726 35.186 107.558 35.1443C107.39 35.1046 107.235 35.0479 107.095 34.9741C106.955 34.9003 106.843 34.7981 106.757 34.6676C106.673 34.5371 106.63 34.363 106.63 34.1455C106.63 33.9279 106.694 33.7179 106.819 33.5477C106.946 33.3774 107.125 33.245 107.357 33.1523C107.588 33.0596 107.863 33.0142 108.182 33.0142C108.425 33.0142 108.673 33.0444 108.923 33.1031C109.173 33.1617 109.379 33.2469 109.537 33.3566L109.25 33.8976C109.082 33.7841 108.906 33.7047 108.723 33.6631C108.54 33.6195 108.357 33.5987 108.176 33.5987C107.881 33.5987 107.661 33.6479 107.517 33.7444C107.371 33.8409 107.299 33.9657 107.299 34.1171C107.299 34.2457 107.342 34.3441 107.429 34.4122C107.515 34.4803 107.629 34.5333 107.767 34.573C107.905 34.6108 108.059 34.643 108.227 34.6695C108.395 34.696 108.565 34.7281 108.733 34.7698C108.901 34.8095 109.054 34.8662 109.192 34.9362C109.33 35.0081 109.442 35.1065 109.528 35.2351C109.614 35.3638 109.659 35.5341 109.659 35.7478C109.659 35.9748 109.593 36.1735 109.463 36.3381C109.332 36.5045 109.147 36.6332 108.908 36.7259C108.669 36.8186 108.383 36.864 108.051 36.864V36.8659Z" fill="#6D6E71"/>
<path d="M109.969 33.6137V33.0519H112.342V33.6137H109.969ZM111.78 36.8658C111.405 36.8658 111.115 36.7636 110.91 36.5593C110.704 36.355 110.602 36.0636 110.602 35.6853V32.2271H111.276V35.6569C111.276 35.8612 111.326 36.0163 111.427 36.1261C111.528 36.2358 111.672 36.2888 111.858 36.2888C112.069 36.2888 112.245 36.2301 112.385 36.1109L112.596 36.6009C112.493 36.6917 112.37 36.7579 112.228 36.7996C112.084 36.8431 111.937 36.8639 111.782 36.8639L111.78 36.8658Z" fill="#6D6E71"/>
<path d="M114.496 36.8659C114.22 36.8659 113.977 36.8186 113.77 36.7241C113.561 36.6295 113.402 36.497 113.288 36.3287C113.176 36.1603 113.12 35.9692 113.12 35.7555C113.12 35.5417 113.169 35.3657 113.264 35.2012C113.359 35.0347 113.516 34.9022 113.734 34.802C113.951 34.7017 114.246 34.6525 114.616 34.6525H115.796V35.1425H114.644C114.308 35.1425 114.08 35.1993 113.962 35.3128C113.845 35.4263 113.787 35.5644 113.787 35.7252C113.787 35.9106 113.86 36.0581 114.005 36.1698C114.151 36.2814 114.351 36.3362 114.608 36.3362C114.866 36.3362 115.083 36.2795 115.271 36.166C115.462 36.0525 115.598 35.886 115.682 35.6684L115.815 36.1376C115.725 36.3608 115.568 36.5368 115.344 36.6673C115.12 36.7978 114.836 36.8641 114.494 36.8641L114.496 36.8659ZM115.719 36.8224V36.026L115.684 35.8765V34.5182C115.684 34.2288 115.6 34.0055 115.435 33.8466C115.269 33.6877 115.019 33.6082 114.687 33.6082C114.466 33.6082 114.252 33.6442 114.041 33.718C113.83 33.7918 113.652 33.8901 113.507 34.0131L113.227 33.5004C113.419 33.3434 113.649 33.2242 113.917 33.141C114.186 33.0577 114.468 33.0161 114.763 33.0161C115.273 33.0161 115.667 33.141 115.943 33.3926C116.22 33.6442 116.358 34.0282 116.358 34.5447V36.8224H115.719Z" fill="#6D6E71"/>
<path d="M117.946 32.3256C117.815 32.3256 117.705 32.2821 117.619 32.197C117.533 32.1118 117.488 32.0078 117.488 31.8829C117.488 31.7581 117.531 31.6483 117.619 31.5632C117.705 31.4781 117.815 31.4346 117.946 31.4346C118.077 31.4346 118.187 31.4762 118.273 31.5594C118.358 31.6427 118.403 31.7448 118.403 31.8697C118.403 31.9945 118.36 32.1062 118.276 32.1932C118.192 32.2802 118.082 32.3256 117.946 32.3256ZM117.608 36.8224V33.0521H118.282V36.8224H117.608Z" fill="#6D6E71"/>
<path d="M121.555 33.0161C121.859 33.0161 122.126 33.0748 122.36 33.1939C122.591 33.3131 122.772 33.4928 122.903 33.735C123.034 33.9772 123.099 34.2836 123.099 34.6525V36.8224H122.425V34.7301C122.425 34.365 122.337 34.0907 122.162 33.9053C121.986 33.7199 121.74 33.6272 121.421 33.6272C121.182 33.6272 120.972 33.6745 120.795 33.7691C120.618 33.8636 120.48 34.0036 120.384 34.189C120.287 34.3744 120.241 34.6033 120.241 34.8795V36.8224H119.566V33.0521H120.213V34.0698L120.108 33.7993C120.229 33.5534 120.416 33.3604 120.67 33.2223C120.922 33.0842 121.217 33.0161 121.555 33.0161Z" fill="#6D6E71"/>
<path d="M125.437 36.8659C125.16 36.8659 124.917 36.8186 124.71 36.7241C124.501 36.6295 124.342 36.497 124.228 36.3287C124.116 36.1603 124.06 35.9692 124.06 35.7555C124.06 35.5417 124.109 35.3657 124.204 35.2012C124.299 35.0347 124.456 34.9022 124.675 34.802C124.893 34.7017 125.186 34.6525 125.556 34.6525H126.736V35.1425H125.584C125.246 35.1425 125.02 35.1993 124.903 35.3128C124.785 35.4263 124.727 35.5644 124.727 35.7252C124.727 35.9106 124.8 36.0581 124.945 36.1698C125.091 36.2814 125.291 36.3362 125.549 36.3362C125.806 36.3362 126.023 36.2795 126.211 36.166C126.4 36.0525 126.538 35.886 126.622 35.6684L126.757 36.1376C126.667 36.3608 126.51 36.5368 126.286 36.6673C126.062 36.7978 125.778 36.8641 125.437 36.8641V36.8659ZM126.66 36.8224V36.026L126.624 35.8765V34.5182C126.624 34.2288 126.54 34.0055 126.374 33.8466C126.208 33.6877 125.959 33.6082 125.627 33.6082C125.407 33.6082 125.192 33.6442 124.981 33.718C124.77 33.7918 124.593 33.8901 124.447 34.0131L124.167 33.5004C124.359 33.3434 124.589 33.2242 124.858 33.141C125.127 33.0577 125.409 33.0161 125.704 33.0161C126.213 33.0161 126.607 33.141 126.884 33.3926C127.16 33.6442 127.298 34.0282 127.298 34.5447V36.8224H126.66Z" fill="#6D6E71"/>
<path d="M128.547 36.8225V31.5425H129.221V34.0548L129.15 34.9307L129.193 35.8066V36.8244H128.547V36.8225ZM130.521 36.866C130.201 36.866 129.916 36.7941 129.66 36.6485C129.404 36.5047 129.204 36.289 129.057 36.0053C128.909 35.7196 128.834 35.3658 128.834 34.9383C128.834 34.5107 128.911 34.1551 129.062 33.8713C129.214 33.5856 129.419 33.3738 129.673 33.2319C129.929 33.09 130.211 33.0181 130.519 33.0181C130.885 33.0181 131.206 33.0994 131.488 33.2602C131.768 33.421 131.99 33.6462 132.154 33.9318C132.319 34.2194 132.401 34.5542 132.401 34.9383C132.401 35.3223 132.319 35.6591 132.154 35.9485C131.99 36.238 131.768 36.4631 131.488 36.6239C131.206 36.7847 130.885 36.866 130.519 36.866H130.521ZM130.465 36.2682C130.704 36.2682 130.918 36.2134 131.107 36.1055C131.297 35.9958 131.447 35.8407 131.557 35.6401C131.667 35.4377 131.721 35.205 131.721 34.9402C131.721 34.6753 131.665 34.4369 131.557 34.2402C131.447 34.0435 131.297 33.8902 131.107 33.7805C130.916 33.6708 130.704 33.6178 130.465 33.6178C130.226 33.6178 130.018 33.6727 129.83 33.7805C129.639 33.8902 129.49 34.0435 129.38 34.2402C129.27 34.4369 129.215 34.6715 129.215 34.9402C129.215 35.2088 129.27 35.4396 129.38 35.6401C129.49 35.8426 129.639 35.9977 129.83 36.1055C130.018 36.2153 130.231 36.2682 130.465 36.2682Z" fill="#6D6E71"/>
<path d="M133.337 36.8225V31.5425H134.011V36.8225H133.337Z" fill="#6D6E71"/>
<path d="M136.954 36.8659C136.556 36.8659 136.205 36.7827 135.904 36.6162C135.602 36.4497 135.369 36.2227 135.202 35.9333C135.036 35.6438 134.952 35.3128 134.952 34.9363C134.952 34.5598 135.032 34.2307 135.195 33.9412C135.356 33.6518 135.578 33.4247 135.862 33.262C136.145 33.0975 136.465 33.0161 136.819 33.0161C137.174 33.0161 137.499 33.0975 137.774 33.2583C138.05 33.4191 138.266 33.6461 138.423 33.9374C138.58 34.2288 138.659 34.5693 138.659 34.959C138.659 34.9874 138.659 35.0214 138.655 35.0593C138.653 35.0971 138.649 35.133 138.644 35.1671H135.477V34.6771H138.293L138.018 34.8474C138.022 34.6052 137.973 34.3896 137.871 34.2004C137.768 34.0112 137.626 33.8617 137.445 33.7558C137.266 33.648 137.055 33.595 136.816 33.595C136.577 33.595 136.373 33.648 136.19 33.7558C136.007 33.8617 135.865 34.0112 135.763 34.2042C135.66 34.3971 135.608 34.6147 135.608 34.8625V34.976C135.608 35.2276 135.665 35.4509 135.779 35.6476C135.893 35.8444 136.054 35.9976 136.261 36.1073C136.467 36.2171 136.704 36.27 136.971 36.27C137.191 36.27 137.391 36.2322 137.572 36.1565C137.751 36.0808 137.91 35.9673 138.046 35.8141L138.418 36.2549C138.25 36.4535 138.041 36.6049 137.788 36.7108C137.538 36.8149 137.258 36.8678 136.95 36.8678L136.954 36.8659Z" fill="#6D6E71"/>
<path d="M143.012 36.8792C142.639 36.8792 142.28 36.8205 141.939 36.7051C141.597 36.5897 141.328 36.4384 141.132 36.253L141.391 35.6987C141.578 35.8652 141.817 36.0033 142.108 36.1111C142.398 36.2208 142.7 36.2757 143.014 36.2757C143.3 36.2757 143.531 36.2435 143.709 36.1754C143.886 36.1092 144.019 36.0184 144.103 35.9011C144.187 35.7857 144.23 35.6533 144.23 35.5057C144.23 35.3355 144.174 35.1974 144.065 35.0933C143.955 34.9893 143.813 34.9041 143.638 34.8398C143.462 34.7755 143.27 34.7206 143.059 34.6733C142.848 34.626 142.637 34.5693 142.424 34.505C142.211 34.4406 142.017 34.3593 141.841 34.259C141.666 34.1588 141.524 34.0263 141.416 33.8561C141.307 33.6877 141.255 33.4701 141.255 33.2053C141.255 32.9404 141.322 32.7134 141.455 32.4978C141.587 32.2821 141.795 32.108 142.073 31.9775C142.351 31.847 142.706 31.7808 143.137 31.7808C143.423 31.7808 143.707 31.8186 143.987 31.8943C144.269 31.9699 144.512 32.0797 144.717 32.2216L144.485 32.791C144.274 32.6491 144.052 32.5451 143.819 32.4807C143.585 32.4164 143.358 32.3842 143.137 32.3842C142.861 32.3842 142.633 32.4202 142.456 32.4902C142.278 32.5602 142.148 32.6567 142.065 32.7759C141.983 32.895 141.942 33.0275 141.942 33.175C141.942 33.351 141.998 33.491 142.107 33.595C142.217 33.6991 142.359 33.7823 142.534 33.8447C142.71 33.9072 142.902 33.962 143.113 34.0112C143.324 34.0604 143.535 34.1171 143.748 34.1796C143.961 34.242 144.155 34.3215 144.33 34.4217C144.506 34.522 144.648 34.6544 144.756 34.8209C144.864 34.9874 144.919 35.1993 144.919 35.4603C144.919 35.7214 144.851 35.9446 144.715 36.1603C144.579 36.376 144.37 36.55 144.086 36.6805C143.802 36.8111 143.445 36.8754 143.014 36.8754L143.012 36.8792Z" fill="#6D6E71"/>
<path d="M147.437 36.8659C147.068 36.8659 146.735 36.7826 146.444 36.6162C146.151 36.4497 145.921 36.2208 145.753 35.9294C145.585 35.6381 145.501 35.307 145.501 34.9362C145.501 34.5654 145.585 34.2306 145.753 33.943C145.921 33.6555 146.151 33.4304 146.44 33.2639C146.73 33.0974 147.062 33.0142 147.437 33.0142C147.813 33.0142 148.138 33.0955 148.431 33.2601C148.724 33.4228 148.953 33.6498 149.12 33.9393C149.286 34.2287 149.37 34.5598 149.37 34.9343C149.37 35.3089 149.286 35.6419 149.12 35.9313C148.953 36.2208 148.724 36.4478 148.431 36.6143C148.138 36.7808 147.807 36.864 147.437 36.864V36.8659ZM147.437 36.2681C147.676 36.2681 147.891 36.2132 148.08 36.1054C148.27 35.9957 148.418 35.8405 148.526 35.64C148.634 35.4376 148.686 35.2049 148.686 34.94C148.686 34.6752 148.632 34.4368 148.526 34.2401C148.418 34.0433 148.27 33.8901 148.08 33.7803C147.889 33.6706 147.676 33.6176 147.437 33.6176C147.198 33.6176 146.985 33.6725 146.799 33.7803C146.612 33.8901 146.461 34.0433 146.349 34.2401C146.237 34.4368 146.181 34.6714 146.181 34.94C146.181 35.2087 146.237 35.4395 146.349 35.64C146.461 35.8424 146.61 35.9975 146.799 36.1054C146.985 36.2151 147.198 36.2681 147.437 36.2681Z" fill="#6D6E71"/>
<path d="M150.302 36.8225V31.5425H150.976V36.8225H150.302Z" fill="#6D6E71"/>
<path d="M153.827 36.8661C153.508 36.8661 153.229 36.8075 152.988 36.6883C152.748 36.5691 152.561 36.3875 152.426 36.1435C152.292 35.8994 152.227 35.5929 152.227 35.2221V33.0522H152.901V35.1446C152.901 35.5154 152.988 35.7916 153.164 35.977C153.339 36.1624 153.586 36.2551 153.905 36.2551C154.139 36.2551 154.342 36.2059 154.516 36.1094C154.689 36.0129 154.822 35.871 154.915 35.6819C155.009 35.4946 155.055 35.2676 155.055 35.0027V33.0541H155.729V36.8245H155.091V35.8067L155.195 36.0772C155.074 36.3289 154.891 36.5237 154.648 36.6599C154.406 36.798 154.131 36.8661 153.827 36.8661Z" fill="#6D6E71"/>
<path d="M156.48 33.6137V33.0519H158.854V33.6137H156.48ZM158.294 36.8658C157.918 36.8658 157.629 36.7636 157.423 36.5593C157.218 36.355 157.113 36.0636 157.113 35.6853V32.2271H157.788V35.6569C157.788 35.8612 157.838 36.0163 157.939 36.1261C158.04 36.2358 158.183 36.2888 158.37 36.2888C158.581 36.2888 158.757 36.2301 158.897 36.1109L159.108 36.6009C159.005 36.6917 158.882 36.7579 158.74 36.7996C158.598 36.8431 158.449 36.8639 158.294 36.8639V36.8658Z" fill="#6D6E71"/>
<path d="M160.259 32.3256C160.129 32.3256 160.02 32.2821 159.933 32.197C159.845 32.1118 159.802 32.0078 159.802 31.8829C159.802 31.7581 159.845 31.6483 159.933 31.5632C160.018 31.4781 160.129 31.4346 160.259 31.4346C160.39 31.4346 160.498 31.4762 160.586 31.5594C160.672 31.6427 160.717 31.7448 160.717 31.8697C160.717 31.9945 160.674 32.1062 160.59 32.1932C160.506 32.2802 160.396 32.3256 160.259 32.3256ZM159.921 36.8224V33.0521H160.595V36.8224H159.921Z" fill="#6D6E71"/>
<path d="M163.475 36.8659C163.106 36.8659 162.773 36.7826 162.482 36.6162C162.189 36.4497 161.959 36.2208 161.791 35.9294C161.623 35.6381 161.539 35.307 161.539 34.9362C161.539 34.5654 161.623 34.2306 161.791 33.943C161.959 33.6555 162.189 33.4304 162.478 33.2639C162.768 33.0974 163.1 33.0142 163.475 33.0142C163.851 33.0142 164.176 33.0955 164.469 33.2601C164.762 33.4228 164.992 33.6498 165.158 33.9393C165.324 34.2287 165.408 34.5598 165.408 34.9343C165.408 35.3089 165.324 35.6419 165.158 35.9313C164.992 36.2208 164.762 36.4478 164.469 36.6143C164.176 36.7808 163.845 36.864 163.475 36.864V36.8659ZM163.475 36.2681C163.714 36.2681 163.929 36.2132 164.118 36.1054C164.308 35.9957 164.456 35.8405 164.564 35.64C164.672 35.4376 164.725 35.2049 164.725 34.94C164.725 34.6752 164.67 34.4368 164.564 34.2401C164.456 34.0433 164.308 33.8901 164.118 33.7803C163.927 33.6706 163.714 33.6176 163.475 33.6176C163.236 33.6176 163.024 33.6725 162.837 33.7803C162.65 33.8901 162.499 34.0433 162.387 34.2401C162.275 34.4368 162.219 34.6714 162.219 34.94C162.219 35.2087 162.275 35.4395 162.387 35.64C162.499 35.8424 162.648 35.9975 162.837 36.1054C163.024 36.2151 163.236 36.2681 163.475 36.2681Z" fill="#6D6E71"/>
<path d="M168.327 33.0161C168.632 33.0161 168.899 33.0748 169.132 33.1939C169.364 33.3131 169.545 33.4928 169.676 33.735C169.806 33.9772 169.872 34.2836 169.872 34.6525V36.8224H169.198V34.7301C169.198 34.365 169.11 34.0907 168.934 33.9053C168.759 33.7199 168.512 33.6272 168.193 33.6272C167.954 33.6272 167.745 33.6745 167.568 33.7691C167.39 33.8636 167.252 34.0036 167.157 34.189C167.06 34.3744 167.013 34.6033 167.013 34.8795V36.8224H166.339V33.0521H166.985V34.0698L166.88 33.7993C167.002 33.5534 167.189 33.3604 167.442 33.2223C167.695 33.0842 167.99 33.0161 168.327 33.0161Z" fill="#6D6E71"/>
<path d="M172.189 36.8659C171.881 36.8659 171.586 36.8224 171.308 36.7372C171.03 36.6521 170.811 36.5481 170.651 36.4232L170.933 35.8821C171.091 35.9919 171.287 36.0846 171.523 36.1602C171.756 36.2359 171.995 36.2737 172.24 36.2737C172.553 36.2737 172.779 36.2283 172.917 36.1375C173.056 36.0467 173.125 35.9219 173.125 35.7611C173.125 35.6419 173.082 35.5511 172.998 35.483C172.914 35.4168 172.802 35.3676 172.663 35.3335C172.525 35.2995 172.372 35.2711 172.204 35.2446C172.036 35.2181 171.866 35.186 171.698 35.1443C171.53 35.1046 171.375 35.0479 171.235 34.9741C171.095 34.9003 170.983 34.7981 170.897 34.6676C170.813 34.5371 170.77 34.363 170.77 34.1455C170.77 33.9279 170.834 33.7179 170.961 33.5477C171.088 33.3774 171.267 33.245 171.498 33.1523C171.73 33.0596 172.004 33.0142 172.324 33.0142C172.566 33.0142 172.813 33.0444 173.065 33.1031C173.315 33.1617 173.521 33.2469 173.679 33.3566L173.392 33.8976C173.224 33.7841 173.048 33.7047 172.865 33.6631C172.682 33.6195 172.499 33.5987 172.318 33.5987C172.023 33.5987 171.803 33.6479 171.659 33.7444C171.513 33.8409 171.44 33.9657 171.44 34.1171C171.44 34.2457 171.483 34.3441 171.571 34.4122C171.657 34.4803 171.771 34.5333 171.909 34.573C172.047 34.6108 172.2 34.643 172.368 34.6695C172.537 34.696 172.705 34.7281 172.874 34.7698C173.043 34.8095 173.196 34.8662 173.334 34.9362C173.472 35.0081 173.584 35.1065 173.672 35.2351C173.758 35.3638 173.802 35.5341 173.802 35.7478C173.802 35.9748 173.737 36.1735 173.606 36.3381C173.476 36.5045 173.291 36.6332 173.052 36.7259C172.813 36.8186 172.527 36.864 172.195 36.864L172.189 36.8659Z" fill="#6D6E71"/>
</g>
<defs>
<clipPath id="clip0_3934_195">
<rect width="174" height="37" fill="white"/>
</clipPath>
</defs>
</svg>
